{
  "accessors": [
    {
      "bufferView": 2,
      "componentType": 5126,
      "count": 5024,
      "max": [0.9774367809295654, 0.941207766532898, 0.521019458770752],
      "min": [-0.9770535826683044, -0.9770570397377014, -0.5099207162857056],
      "type": "VEC3"
    },
    {
      "bufferView": 2,
      "byteOffset": 60288,
      "componentType": 5126,
      "count": 5024,
      "max": [0.9986959099769592, 0.9999935626983643, 0.9999791383743286],
      "min": [-0.9992527961730957, -0.9999738931655884, -0.9999977350234985],
      "type": "VEC3"
    },
    {
      "bufferView": 1,
      "componentType": 5126,
      "count": 5024,
      "max": [0.15701362490653992, 0.9637835025787354],
      "min": [0.1341642141342163, 0.9516285061836243],
      "type": "VEC2"
    },
    {
      "bufferView": 0,
      "componentType": 5125,
      "count": 23424,
      "type": "SCALAR"
    },
    {
      "bufferView": 2,
      "byteOffset": 120576,
      "componentType": 5126,
      "count": 14811,
      "max": [0.38036978244781494, 0.2615232467651367, 1.004683256149292],
      "min": [-0.39313146471977234, -0.47625213861465454, 0.583510160446167],
      "type": "VEC3"
    },
    {
      "bufferView": 2,
      "byteOffset": 298308,
      "componentType": 5126,
      "count": 14811,
      "max": [0.9999334812164307, 0.9998327493667603, 0.9999575614929199],
      "min": [-0.9996657371520996, -0.9986020922660828, -0.999738335609436],
      "type": "VEC3"
    },
    {
      "bufferView": 1,
      "byteOffset": 40192,
      "componentType": 5126,
      "count": 14811,
      "max": [0.04726306349039078, 0.9675217866897583],
      "min": [0.033524155616760254, 0.9599206447601318],
      "type": "VEC2"
    },
    {
      "bufferView": 0,
      "byteOffset": 93696,
      "componentType": 5125,
      "count": 88854,
      "type": "SCALAR"
    },
    {
      "bufferView": 2,
      "byteOffset": 476040,
      "componentType": 5126,
      "count": 31555,
      "max": [5.181247234344482, 0.9825040102005005, 2.1028406620025635],
      "min": [-10.956406593322754, -5.269821643829346, -4.791680812835693],
      "type": "VEC3"
    },
    {
      "bufferView": 2,
      "byteOffset": 854700,
      "componentType": 5126,
      "count": 31555,
      "max": [0.99986732006073, 0.9999822378158569, 0.9999998807907104],
      "min": [-0.9998593330383301, -0.9999732971191406, -0.999980092048645],
      "type": "VEC3"
    },
    {
      "bufferView": 1,
      "byteOffset": 158680,
      "componentType": 5126,
      "count": 31555,
      "max": [0.2660614848136902, 0.958906888961792],
      "min": [0.23971514403820038, 0.9469119310379028],
      "type": "VEC2"
    },
    {
      "bufferView": 0,
      "byteOffset": 449112,
      "componentType": 5125,
      "count": 189318,
      "type": "SCALAR"
    },
    {
      "bufferView": 2,
      "byteOffset": 1233360,
      "componentType": 5126,
      "count": 124,
      "max": [0.8395062685012817, 0.8395062685012817, 0.8395062685012817],
      "min": [-0.8395062685012817, -0.8395062685012817, -0.8395062685012817],
      "type": "VEC3"
    },
    {
      "bufferView": 2,
      "byteOffset": 1234848,
      "componentType": 5126,
      "count": 124,
      "max": [1.0, 1.0, 1.0],
      "min": [-1.0, -1.0, -1.0],
      "type": "VEC3"
    },
    {
      "bufferView": 1,
      "byteOffset": 411120,
      "componentType": 5126,
      "count": 124,
      "max": [0.24956505000591278, 0.9481927752494812],
      "min": [0.24047788977622986, 0.9391055107116699],
      "type": "VEC2"
    },
    {
      "bufferView": 0,
      "byteOffset": 1206384,
      "componentType": 5125,
      "count": 576,
      "type": "SCALAR"
    },
    {
      "bufferView": 2,
      "byteOffset": 1236336,
      "componentType": 5126,
      "count": 42,
      "max": [0.9510578513145447, 0.9999999403953552, 1.0],
      "min": [-0.9510578513145447, -0.9999999403953552, -1.0],
      "type": "VEC3"
    },
    {
      "bufferView": 2,
      "byteOffset": 1236840,
      "componentType": 5126,
      "count": 42,
      "max": [0.9510607719421387, 1.0, 1.0],
      "min": [-0.9510607719421387, -1.0, -1.0],
      "type": "VEC3"
    },
    {
      "bufferView": 1,
      "byteOffset": 412112,
      "componentType": 5126,
      "count": 42,
      "max": [0.352449506521225, 0.9423282742500305],
      "min": [0.34371164441108704, 0.9331406950950623],
      "type": "VEC2"
    },
    {
      "bufferView": 0,
      "byteOffset": 1208688,
      "componentType": 5125,
      "count": 240,
      "type": "SCALAR"
    },
    {
      "bufferView": 2,
      "byteOffset": 1237344,
      "componentType": 5126,
      "count": 42,
      "max": [0.9510578513145447, 0.9999999403953552, 1.0],
      "min": [-0.9510578513145447, -0.9999999403953552, -1.0],
      "type": "VEC3"
    },
    {
      "bufferView": 2,
      "byteOffset": 1237848,
      "componentType": 5126,
      "count": 42,
      "max": [0.9510607719421387, 1.0, 1.0],
      "min": [-0.9510607719421387, -1.0, -1.0],
      "type": "VEC3"
    },
    {
      "bufferView": 1,
      "byteOffset": 412448,
      "componentType": 5126,
      "count": 42,
      "max": [0.3524908423423767, 0.9632785320281982],
      "min": [0.34416717290878296, 0.9545265436172485],
      "type": "VEC2"
    },
    {
      "bufferView": 0,
      "byteOffset": 1209648,
      "componentType": 5125,
      "count": 240,
      "type": "SCALAR"
    },
    {
      "bufferView": 2,
      "byteOffset": 1238352,
      "componentType": 5126,
      "count": 32,
      "max": [1.0, 1.0, 0.0],
      "min": [-1.0, -1.0, 0.0],
      "type": "VEC3"
    },
    {
      "bufferView": 2,
      "byteOffset": 1238736,
      "componentType": 5126,
      "count": 32,
      "max": [0.0, 0.0, 1.0],
      "min": [0.0, 0.0, 1.0],
      "type": "VEC3"
    },
    {
      "bufferView": 1,
      "byteOffset": 412784,
      "componentType": 5126,
      "count": 32,
      "max": [0.25530701875686646, 0.960416316986084],
      "min": [0.24992692470550537, 0.9553033113479614],
      "type": "VEC2"
    },
    {
      "bufferView": 0,
      "byteOffset": 1210608,
      "componentType": 5125,
      "count": 90,
      "type": "SCALAR"
    },
    {
      "bufferView": 2,
      "byteOffset": 1239120,
      "componentType": 5126,
      "count": 32,
      "max": [1.0, 1.0, 0.0],
      "min": [-1.0, -1.0, 0.0],
      "type": "VEC3"
    },
    {
      "bufferView": 2,
      "byteOffset": 1239504,
      "componentType": 5126,
      "count": 32,
      "max": [0.0, 0.0, 1.0],
      "min": [0.0, 0.0, 1.0],
      "type": "VEC3"
    },
    {
      "bufferView": 1,
      "byteOffset": 413040,
      "componentType": 5126,
      "count": 32,
      "max": [0.22336682677268982, 0.9665977954864502],
      "min": [0.2174338400363922, 0.9608578681945801],
      "type": "VEC2"
    },
    {
      "bufferView": 0,
      "byteOffset": 1210968,
      "componentType": 5125,
      "count": 90,
      "type": "SCALAR"
    },
    {
      "bufferView": 2,
      "byteOffset": 1239888,
      "componentType": 5126,
      "count": 90,
      "max": [-0.16513067483901978, 1.8422752618789673, -2.995600461959839],
      "min": [-0.6108259558677673, 1.066499948501587, -3.9929563999176025],
      "type": "VEC3"
    },
    {
      "bufferView": 2,
      "byteOffset": 1240968,
      "componentType": 5126,
      "count": 90,
      "max": [1.0, 0.9978569746017456, 0.9560906291007996],
      "min": [-1.0, -0.9726261496543884, -0.9961647391319275],
      "type": "VEC3"
    },
    {
      "bufferView": 1,
      "byteOffset": 413296,
      "componentType": 5126,
      "count": 90,
      "max": [0.23665927350521088, 0.9450605511665344],
      "min": [0.2331448495388031, 0.9358884692192078],
      "type": "VEC2"
    },
    {
      "bufferView": 0,
      "byteOffset": 1211328,
      "componentType": 5125,
      "count": 336,
      "type": "SCALAR"
    }
  ],
  "asset": {
    "extras": {
      "author": "TanishaBerry (https://sketchfab.com/TanishaBerry)",
      "license": "CC-BY-4.0 (http://creativecommons.org/licenses/by/4.0/)",
      "source": "https://sketchfab.com/3d-models/pumpkin-cat-82bf19f3981647c48f59d780779aed13",
      "title": "Pumpkin Cat"
    },
    "generator": "Sketchfab-12.66.0",
    "version": "2.0"
  },
  "bufferViews": [
    {
      "buffer": 0,
      "byteLength": 1212672,
      "name": "floatBufferViews",
      "target": 34963
    },
    {
      "buffer": 0,
      "byteLength": 414016,
      "byteOffset": 1212672,
      "byteStride": 8,
      "name": "floatBufferViews",
      "target": 34962
    },
    {
      "buffer": 0,
      "byteLength": 1242048,
      "byteOffset": 1626688,
      "byteStride": 12,
      "name": "floatBufferViews",
      "target": 34962
    }
  ],
  "buffers": [
    {
      "byteLength": 2868736,
      "uri": "pumpkinCat.bin"
    }
  ],
  "images": [
    {
      "uri": "textures/MAIN_baseColor.png"
    }
  ],
  "materials": [
    {
      "doubleSided": true,
      "name": "MAIN",
      "pbrMetallicRoughness": {
        "baseColorTexture": {
          "index": 0
        },
        "metallicFactor": 0.0,
        "roughnessFactor": 0.8211145618000169
      }
    }
  ],
  "meshes": [
    {
      "name": "pumpkin_MAIN_0",
      "primitives": [
        {
          "attributes": {
            "NORMAL": 1,
            "POSITION": 0,
            "TEXCOORD_0": 2
          },
          "indices": 3,
          "material": 0,
          "mode": 4
        }
      ]
    },
    {
      "name": "top_MAIN_0",
      "primitives": [
        {
          "attributes": {
            "NORMAL": 5,
            "POSITION": 4,
            "TEXCOORD_0": 6
          },
          "indices": 7,
          "material": 0,
          "mode": 4
        }
      ]
    },
    {
      "name": "paw_MAIN_0",
      "primitives": [
        {
          "attributes": {
            "NORMAL": 9,
            "POSITION": 8,
            "TEXCOORD_0": 10
          },
          "indices": 11,
          "material": 0,
          "mode": 4
        }
      ]
    },
    {
      "name": "Cube_MAIN_0",
      "primitives": [
        {
          "attributes": {
            "NORMAL": 13,
            "POSITION": 12,
            "TEXCOORD_0": 14
          },
          "indices": 15,
          "material": 0,
          "mode": 4
        }
      ]
    },
    {
      "name": "Icosphere_MAIN_0",
      "primitives": [
        {
          "attributes": {
            "NORMAL": 17,
            "POSITION": 16,
            "TEXCOORD_0": 18
          },
          "indices": 19,
          "material": 0,
          "mode": 4
        }
      ]
    },
    {
      "name": "Icosphere.001_MAIN_0",
      "primitives": [
        {
          "attributes": {
            "NORMAL": 21,
            "POSITION": 20,
            "TEXCOORD_0": 22
          },
          "indices": 23,
          "material": 0,
          "mode": 4
        }
      ]
    },
    {
      "name": "Circle_MAIN_0",
      "primitives": [
        {
          "attributes": {
            "NORMAL": 25,
            "POSITION": 24,
            "TEXCOORD_0": 26
          },
          "indices": 27,
          "material": 0,
          "mode": 4
        }
      ]
    },
    {
      "name": "Circle.001_MAIN_0",
      "primitives": [
        {
          "attributes": {
            "NORMAL": 29,
            "POSITION": 28,
            "TEXCOORD_0": 30
          },
          "indices": 31,
          "material": 0,
          "mode": 4
        }
      ]
    },
    {
      "name": "Cube.001_MAIN_0",
      "primitives": [
        {
          "attributes": {
            "NORMAL": 33,
            "POSITION": 32,
            "TEXCOORD_0": 34
          },
          "indices": 35,
          "material": 0,
          "mode": 4
        }
      ]
    }
  ],
  "nodes": [
    {
      "children": [1],
      "matrix": [
        1.0, 0.0, 0.0, 0.0, 0.0, 2.220446049250313e-16, -1.0, 0.0, 0.0, 1.0,
        2.220446049250313e-16, 0.0, 0.0, 0.0, 0.0, 1.0
      ],
      "name": "Sketchfab_model"
    },
    {
      "children": [2],
      "matrix": [
        1.0, 0.0, 0.0, 0.0, 0.0, 0.0, 1.0, 0.0, 0.0, -1.0, 0.0, 0.0, 0.0, 0.0,
        0.0, 1.0
      ],
      "name": "8d00aabbd96c488a80f1476cc0b491c1.fbx"
    },
    {
      "children": [3, 5, 7, 9, 11, 13, 15, 17, 19, 22, 25, 27],
      "name": "RootNode"
    },
    {
      "children": [4],
      "matrix": [
        100.0, 0.0, 0.0, 0.0, 0.0, -1.629206793918314e-5, -99.99999999999868,
        0.0, 0.0, 99.99999999999868, -1.629206793918314e-5, 0.0, 0.0, 0.0, 0.0,
        1.0
      ],
      "name": "pumpkin"
    },
    {
      "mesh": 0,
      "name": "pumpkin_MAIN_0"
    },
    {
      "children": [6],
      "matrix": [
        99.18437526495421, 12.745908261943896, 0.0, 0.0, 5.571414093963334e-7,
        -4.335487235884727e-6, -99.99999999999991, 0.0, -12.745908261943883,
        99.18437526495413, -4.3711386728180365e-6, 0.0, -10.687986373901367,
        3.648247241973877, 1.212173342704773, 1.0
      ],
      "name": "top"
    },
    {
      "mesh": 1,
      "name": "top_MAIN_0"
    },
    {
      "children": [8],
      "matrix": [
        -5.310158210426109, -0.291636172802911, 0.11876869320192078, -0.0,
        0.16825529719929838, 0.033831644973182536, 7.605781919267056, -0.0,
        0.292090121247424, -5.311433575159409, 0.01716441862778967, -0.0,
        -40.66410827636719, 46.75437927246094, 37.366477966308594, 1.0
      ],
      "name": "paw"
    },
    {
      "mesh": 2,
      "name": "paw_MAIN_0"
    },
    {
      "children": [10],
      "matrix": [
        26.67238998413086, 0.0, 0.0, 0.0, -0.0, -4.345483897218479e-6,
        -26.672389984130508, 0.0, 0.0, 26.672389984130508,
        -4.345483897218479e-6, 0.0, -26.0289249420166, 36.486427307128906,
        4.635594367980957, 1.0
      ],
      "name": "Cube"
    },
    {
      "mesh": 3,
      "name": "Cube_MAIN_0"
    },
    {
      "children": [12],
      "matrix": [
        -6.854587554931641, -0.0, -0.0, -0.0, 0.0, 1.1167540614002554e-6,
        6.85458755493155, -0.0, -0.0, -6.85458755493155, 1.1167540614002554e-6,
        -0.0, -34.5066032409668, 57.01791763305664, 33.473472595214844, 1.0
      ],
      "name": "Icosphere"
    },
    {
      "mesh": 4,
      "name": "Icosphere_MAIN_0"
    },
    {
      "children": [14],
      "matrix": [
        -6.854587554931641, -0.0, -0.0, -0.0, 0.0, 1.1167540614002554e-6,
        6.85458755493155, -0.0, -0.0, -6.85458755493155, 1.1167540614002554e-6,
        -0.0, -12.791337013244629, 58.90132141113281, 32.24961853027344, 1.0
      ],
      "name": "Icosphere.001"
    },
    {
      "mesh": 5,
      "name": "Icosphere.001_MAIN_0"
    },
    {
      "children": [16],
      "matrix": [
        -2.624880075454712, -0.0, -0.0, -0.0, -0.0, -2.4946094585663112,
        0.8166511248695062, -0.0, -0.0, -0.8166511248695062,
        -2.4946094585663112, -0.0, -12.394536018371582, 60.55657196044922,
        38.755802154541016, 1.0
      ],
      "name": "Circle"
    },
    {
      "mesh": 6,
      "name": "Circle_MAIN_0"
    },
    {
      "children": [18],
      "matrix": [
        -2.624880075454712, -0.0, -0.0, -0.0, -0.0, -2.5394329540073812,
        0.664285844061485, -0.0, -0.0, -0.664285844061485, -2.5394329540073812,
        -0.0, -34.23677062988281, 58.82837677001953, 39.936614990234375, 1.0
      ],
      "name": "Circle.001"
    },
    {
      "mesh": 7,
      "name": "Circle.001_MAIN_0"
    },
    {
      "children": [20],
      "matrix": [
        479.8169410951699, -254.94112073526685, 76.36448127618041, 0.0,
        261.816659136418, 480.42446685636463, -41.17249869369439, 0.0,
        -47.73411820677876, 72.44420341396301, 541.7786423946568, 0.0,
        125.00308990478516, 280.02825927734375, -42.169830322265625, 1.0
      ],
      "name": "Area"
    },
    {
      "children": [21],
      "matrix": [
        1.0, 0.0, 0.0, 0.0, 0.0, 2.220446049250313e-16, 1.0, 0.0, 0.0, -1.0,
        2.220446049250313e-16, 0.0, 0.0, 0.0, 0.0, 1.0
      ],
      "name": "Object_20"
    },
    {
      "name": "Object_21"
    },
    {
      "children": [23],
      "matrix": [
        133.2921391048417, 90.21507946715802, 4.179055824224889, 0.0,
        -88.21359425642274, 131.65252311771246, -28.442826214979014, 0.0,
        -19.3542465420601, 21.257281375252106, 158.41893998924058, 0.0,
        -154.33990478515625, 255.15603637695313, -42.16983413696289, 1.0
      ],
      "name": "Area.001"
    },
    {
      "children": [24],
      "matrix": [
        1.0, 0.0, 0.0, 0.0, 0.0, 2.220446049250313e-16, 1.0, 0.0, 0.0, -1.0,
        2.220446049250313e-16, 0.0, 0.0, 0.0, 0.0, 1.0
      ],
      "name": "Object_23"
    },
    {
      "name": "Object_24"
    },
    {
      "children": [26],
      "matrix": [
        -61.57613299412279, -35.51043173634708, -70.33767897356533, 0.0,
        -23.390457315863987, 93.48266811494442, -26.718481780705673, 0.0,
        75.24139296880121, 9.690199083317985e-5, -65.86906944829268, 0.0,
        276.3970642089844, 171.80020141601563, 307.6341552734375, 1.0
      ],
      "name": "Camera"
    },
    {
      "name": "Object_26"
    },
    {
      "children": [28],
      "matrix": [
        15.779495239257813, 0.0, 0.0, 0.0, -0.0, -4.427582199550944e-6,
        -27.176305770873665, 0.0, 0.0, 15.779495239257605,
        -2.570806084840052e-6, 0.0, -15.487837791442871, 93.49655151367188,
        20.810239791870117, 1.0
      ],
      "name": "Cube.001"
    },
    {
      "mesh": 8,
      "name": "Cube.001_MAIN_0"
    }
  ],
  "samplers": [
    {
      "magFilter": 9729,
      "minFilter": 9987,
      "wrapS": 10497,
      "wrapT": 10497
    }
  ],
  "scene": 0,
  "scenes": [
    {
      "name": "Sketchfab_Scene",
      "nodes": [0]
    }
  ],
  "textures": [
    {
      "sampler": 0,
      "source": 0
    }
  ]
}
